<svg width="64" height="64" viewBox="0 0 64 64" fill="none" xmlns="http://www.w3.org/2000/svg">
  <rect width="64" height="64" rx="16" fill="#08080D"/>
  <path d="M18 42.5C21.2 46.1 25.7 48 31.4 48C38.7 48 45 44.2 45 37.6C45 31.9 40.6 29.7 34 28.2L29.4 27.1C26.2 26.4 24.8 25.3 24.8 23.2C24.8 20.8 27 19.2 30.8 19.2C34.4 19.2 37.5 20.5 40.2 23.4L44.4 18.6C40.9 15 36.4 13 31 13C23.8 13 18.3 17.1 18.3 23.6C18.3 29.2 22.3 31.9 28.4 33.3L33 34.4C36.8 35.3 38.4 36.3 38.4 38.3C38.4 40.7 35.9 42 31.6 42C27.7 42 24.1 40.5 21.3 37.5L18 42.5Z" fill="#F8FAFC"/>
  <path d="M47 45.5L52 50.5" stroke="#A78BFA" stroke-width="4" stroke-linecap="round"/>
  <path d="M50.5 42L55.5 47" stroke="#67E8F9" stroke-width="4" stroke-linecap="round"/>
</svg>

